# File created by Blade
# Date/Time:  Wed Apr 08 17:19:54 2015
# Frame Rate: 120.000 fps
#------------------------------------------------------
:FULLY-SPECIFIED
:DEGREES
903
root 4.732754 35.941338 1.334399 69.211277 -83.702585 -75.154800
Spine 9.136957 -0.304737 0.488520
Head 23.046228 14.670965 11.252730
LeftShoulder -8.269127 17.846800 14.335535
LeftArm 15.427139 22.027997 -76.361231
LeftForeArm 22.035351 0.000000 16.317852
LeftHand -10.178342 -0.000000 -17.656421
LeftHandThumb1 -26.253704 0.000000 33.147579
RightShoulder -39.190189 -51.472673 30.350623
RightArm 50.363765 -16.303450 62.689890
RightForeArm 35.852558 -0.000000 10.419672
RightHand -3.141449 0.000000 6.423892
RightHandThumb1 -24.326973 -0.000000 -32.862282
LeftUpLeg 11.304432 32.025478 1.866870
LeftLeg 9.861309 -0.000000 -0.000000
LeftFoot -18.609658 10.225066 -3.633196
LeftToeBase 4.645070 -0.000000 -0.000000
RightUpLeg -12.689931 -13.634917 -34.572970
RightLeg 149.804249 -0.000000 -0.000000
RightFoot 39.986479 8.521203 11.096335
RightToeBase 18.101038 -0.000000 -0.000000
904
root 4.736561 35.953026 1.333430 73.336900 -83.881582 -79.255149
Spine 9.206385 -0.084603 0.398792
Head 22.875153 14.791053 11.101567
LeftShoulder -8.393986 17.876954 14.180856
LeftArm 15.344410 21.898462 -76.426880
LeftForeArm 21.978306 -0.000000 16.213793
LeftHand -10.117277 -0.000000 -17.596877
LeftHandThumb1 -26.253704 0.000000 33.147579
RightShoulder -39.140319 -51.507509 30.224784
RightArm 50.259728 -16.389328 62.698918
RightForeArm 35.927906 -0.000000 10.635173
RightHand -3.049333 -0.000000 6.820169
RightHandThumb1 -24.326973 -0.000000 -32.862282
LeftUpLeg 11.253309 31.152955 1.765318
LeftLeg 10.055592 -0.000000 -0.000000
LeftFoot -18.361617 9.931209 -3.503767
LeftToeBase 3.978303 -0.000000 -0.000000
RightUpLeg -12.753579 -13.398368 -34.796691
RightLeg 149.938595 -0.000000 -0.000000
RightFoot 39.920102 8.587892 10.941700
RightToeBase 17.991155 -0.000000 -0.000000
905
root 4.743392 35.961979 1.333955 77.931985 -84.033928 -83.796429
Spine 9.235333 0.166358 0.327536
Head 22.725300 14.896702 10.883988
LeftShoulder -8.463986 17.970808 14.012155
LeftArm 15.303757 21.788088 -76.457750
LeftForeArm 21.966561 -0.000000 16.069656
LeftHand -10.032233 -0.000000 -17.639778
LeftHandThumb1 -26.253704 0.000000 33.147579
RightShoulder -39.143266 -51.561725 30.135768
RightArm 50.202323 -16.469266 62.654397
RightForeArm 36.018442 -0.000000 10.842775
RightHand -3.169457 -0.000000 6.475004
RightHandThumb1 -24.326973 -0.000000 -32.862282
LeftUpLeg 11.183179 30.206288 1.610659
LeftLeg 10.169584 -0.000000 -0.000000
LeftFoot -18.128222 9.785120 -3.330849
LeftToeBase 3.382388 -0.000000 -0.000000
RightUpLeg -12.904016 -13.154761 -35.043338
RightLeg 150.059320 -0.000000 -0.000000
RightFoot 40.005556 8.674891 10.869520
RightToeBase 18.164794 -0.000000 -0.000000
906
root 4.751086 35.968040 1.335733 82.601192 -84.169408 -88.416013
Spine 9.279794 0.370709 0.226819
Head 22.560292 15.088061 10.703321
LeftShoulder -8.601586 17.999539 13.840492
LeftArm 15.226584 21.770176 -76.489823
LeftForeArm 22.001480 -0.000000 15.871558
LeftHand -9.972683 0.000000 -17.768691
LeftHandThumb1 -26.253704 0.000000 33.147579
RightShoulder -39.057714 -51.578700 29.958286
RightArm 50.125448 -16.598386 62.579987
RightForeArm 36.036898 -0.000000 11.034605
RightHand -3.123253 -0.000000 6.638365
RightHandThumb1 -24.326973 -0.000000 -32.862282
LeftUpLeg 11.137756 29.201878 1.425087
LeftLeg 10.234752 -0.000000 -0.000000
LeftFoot -17.903723 9.620833 -3.125803
LeftToeBase 2.736090 -0.000000 -0.000000
RightUpLeg -13.056505 -12.944704 -35.315795
RightLeg 150.194721 -0.000000 -0.000000
RightFoot 40.051287 8.695984 10.877605
RightToeBase 18.280161 -0.000000 -0.000000
